<?xml version="1.0" encoding="utf-8"?>
<!-- Generator: Adobe Illustrator 26.1.0, SVG Export Plug-In . SVG Version: 6.00 Build 0)  -->
<svg version="1.1" xmlns="http://www.w3.org/2000/svg" xmlns:xlink="http://www.w3.org/1999/xlink" x="0px" y="0px"
	 viewBox="0 0 1000 1000" style="enable-background:new 0 0 1000 1000;" xml:space="preserve">
<style type="text/css">
	.st0{display:none;}
	.st1{fill:none;stroke:#000000;stroke-miterlimit:10;}
	.st2{display:inline;fill:none;stroke:#000000;stroke-miterlimit:10;}
	.st3{fill:none;stroke:#000000;stroke-width:15;stroke-miterlimit:10;}
</style>
<g id="Слой_1" class="st0">
	<line class="st1" x1="275" y1="275" x2="50" y2="500"/>
	<line class="st1" x1="300" y1="300" x2="100" y2="500"/>
	<line class="st1" x1="325" y1="325" x2="150" y2="500"/>
	<line class="st1" x1="350" y1="350" x2="200" y2="500"/>
	<line class="st1" x1="375" y1="375" x2="250" y2="500"/>
	<line class="st1" x1="400" y1="400" x2="300" y2="500"/>
	<path class="st1" d="M425,425c-3.12,0-75,75-75,75"/>
	<circle class="st2" cx="500" cy="500" r="475"/>
	<circle class="st2" cx="500" cy="500" r="450"/>
	<circle class="st2" cx="500" cy="500" r="425"/>
	<circle class="st1" cx="500" cy="500" r="400"/>
	<circle class="st1" cx="500" cy="500" r="375"/>
	<circle class="st1" cx="500" cy="500" r="350"/>
	<circle class="st1" cx="500" cy="500" r="325"/>
	<circle class="st1" cx="500" cy="500" r="300"/>
	<circle class="st1" cx="500" cy="500" r="275"/>
</g>
<g id="Слой_3" class="st0">
	<polyline class="st2" points="500,0 500,500 50,500 0,500 	"/>
	<line class="st2" x1="0" y1="0" x2="500" y2="500"/>
</g>
<g id="Слой_2" class="st0">
	<path class="st2" d="M125,500"/>
	<line class="st2" x1="225" y1="500" x2="306.25" y2="306.25"/>
	<line class="st2" x1="287.5" y1="287.5" x2="200" y2="500"/>
	<line class="st2" x1="175" y1="500" x2="270.19" y2="270.19"/>
	<line class="st2" x1="150" y1="500" x2="252.51" y2="252.51"/>
	<line class="st2" x1="125" y1="500" x2="234.83" y2="234.83"/>
	<line class="st2" x1="100" y1="500" x2="217.16" y2="217.16"/>
	<line class="st2" x1="75" y1="500" x2="198.96" y2="200"/>
	<line class="st2" x1="50" y1="500" x2="181.8" y2="181.8"/>
	<line class="st2" x1="164.12" y1="164.12" x2="25" y2="500"/>
</g>
<g id="Слой_4">
	<g>
		<g>
			<path class="st3" d="M836.88,533.28l59.94-0.01c12.16,0,20.42,12.36,15.77,23.59l-6.53,15.77c-2.64,6.38-1.18,13.71,3.7,18.59
				l54.62,54.61c4.88,4.88,6.34,12.22,3.7,18.6l-22.95,55.34c-2.64,6.37-8.86,10.53-15.76,10.53l-77.2,0.01
				c-6.9,0-13.12,4.16-15.76,10.53l-6.76,16.33c-4.65,11.24-19.23,14.14-27.83,5.54l-42.39-42.38c-4.88-4.88-6.34-12.22-3.7-18.59
				l65.4-157.93C823.76,537.43,829.98,533.28,836.88,533.28z"/>
		</g>
		<g>
			<path class="st3" d="M714.68,761.74l42.39,42.38c8.6,8.6,5.7,23.17-5.53,27.83l-15.77,6.53c-6.38,2.64-10.53,8.86-10.53,15.76
				l0.01,77.24c0,6.9-4.16,13.13-10.54,15.77l-55.36,22.91c-6.37,2.64-13.71,1.18-18.59-3.7l-54.6-54.59
				c-4.88-4.88-12.22-6.34-18.6-3.7l-16.32,6.76c-11.23,4.65-23.59-3.6-23.59-15.76l-0.01-59.94c0-6.9,4.16-13.12,10.53-15.76
				l157.91-65.43C702.46,755.4,709.8,756.86,714.68,761.74z"/>
		</g>
		<g>
			<path class="st3" d="M466.72,836.88l0.01,59.94c0,12.16-12.36,20.42-23.59,15.77l-15.77-6.53c-6.38-2.64-13.71-1.18-18.59,3.7
				l-54.61,54.62c-4.88,4.88-12.22,6.34-18.6,3.7l-55.34-22.95c-6.37-2.64-10.53-8.86-10.53-15.76l-0.01-77.2
				c0-6.9-4.16-13.12-10.53-15.76l-16.33-6.76c-11.24-4.65-14.14-19.23-5.54-27.83l42.38-42.39c4.88-4.88,12.22-6.34,18.59-3.7
				l157.93,65.4C462.57,823.76,466.72,829.98,466.72,836.88z"/>
		</g>
		<g>
			<path class="st3" d="M238.26,714.68l-42.38,42.39c-8.6,8.6-23.17,5.7-27.83-5.53l-6.53-15.77c-2.64-6.38-8.86-10.53-15.76-10.53
				l-77.24,0.01c-6.9,0-13.13-4.16-15.77-10.54l-22.91-55.36c-2.64-6.37-1.18-13.71,3.7-18.59l54.59-54.6
				c4.88-4.88,6.34-12.22,3.7-18.6l-6.76-16.32c-4.65-11.23,3.6-23.59,15.76-23.59l59.94-0.01c6.9,0,13.12,4.16,15.76,10.53
				l65.43,157.91C244.6,702.46,243.14,709.8,238.26,714.68z"/>
		</g>
		<g>
			<path class="st3" d="M163.12,466.72l-59.94,0.01c-12.16,0-20.42-12.36-15.77-23.59l6.53-15.77c2.64-6.38,1.18-13.71-3.7-18.59
				l-54.62-54.61c-4.88-4.88-6.34-12.22-3.7-18.6l22.95-55.34c2.64-6.37,8.86-10.53,15.76-10.53l77.2-0.01
				c6.9,0,13.12-4.16,15.76-10.53l6.76-16.33c4.65-11.24,19.23-14.14,27.83-5.54l42.39,42.38c4.88,4.88,6.34,12.22,3.7,18.59
				l-65.4,157.93C176.24,462.57,170.02,466.72,163.12,466.72z"/>
		</g>
		<g>
			<path class="st3" d="M285.32,238.26l-42.39-42.38c-8.6-8.6-5.7-23.17,5.53-27.83l15.77-6.53c6.38-2.64,10.53-8.86,10.53-15.76
				l-0.01-77.24c0-6.9,4.16-13.13,10.54-15.77l55.36-22.91c6.37-2.64,13.71-1.18,18.59,3.7l54.6,54.59
				c4.88,4.88,12.22,6.34,18.6,3.7l16.32-6.76c11.23-4.65,23.59,3.6,23.59,15.76l0.01,59.94c0,6.9-4.16,13.12-10.53,15.76
				l-157.91,65.43C297.54,244.6,290.2,243.14,285.32,238.26z"/>
		</g>
		<g>
			<path class="st3" d="M533.28,163.12l-0.01-59.94c0-12.16,12.36-20.42,23.59-15.77l15.77,6.53c6.38,2.64,13.71,1.18,18.59-3.7
				l54.61-54.62c4.88-4.88,12.22-6.34,18.6-3.7l55.34,22.95c6.37,2.64,10.53,8.86,10.53,15.76l0.01,77.2
				c0,6.9,4.16,13.12,10.53,15.76l16.33,6.76c11.24,4.65,14.14,19.23,5.54,27.83l-42.38,42.39c-4.88,4.88-12.22,6.34-18.59,3.7
				l-157.93-65.4C537.43,176.24,533.28,170.02,533.28,163.12z"/>
		</g>
		<g>
			<path class="st3" d="M761.74,285.32l42.38-42.39c8.6-8.6,23.17-5.7,27.83,5.53l6.53,15.77c2.64,6.38,8.86,10.53,15.76,10.53
				l77.24-0.01c6.9,0,13.13,4.16,15.77,10.54l22.91,55.36c2.64,6.37,1.18,13.71-3.7,18.59l-54.59,54.6
				c-4.88,4.88-6.34,12.22-3.7,18.6l6.76,16.32c4.65,11.23-3.6,23.59-15.76,23.59l-59.94,0.01c-6.9,0-13.12-4.16-15.76-10.53
				l-65.43-157.91C755.4,297.54,756.86,290.2,761.74,285.32z"/>
		</g>
	</g>
	<circle class="st3" cx="500" cy="500" r="271.91"/>
</g>
</svg>
