<?xml version="1.0" encoding="utf-8"?>
<!-- Generator: Adobe Illustrator 26.1.0, SVG Export Plug-In . SVG Version: 6.00 Build 0)  -->
<svg version="1.1" xmlns="http://www.w3.org/2000/svg" xmlns:xlink="http://www.w3.org/1999/xlink" x="0px" y="0px"
	 viewBox="0 0 1000 1000" style="enable-background:new 0 0 1000 1000;" xml:space="preserve">
<style type="text/css">
	.st0{display:none;}
	.st1{display:inline;fill:none;stroke:#000000;stroke-miterlimit:10;}
	.st2{fill:none;stroke:#000000;stroke-width:15;stroke-miterlimit:10;}
</style>
<g id="Слой_1" class="st0">
	<polyline class="st1" points="0,500 500,500 500,0 	"/>
	<polyline class="st1" points="1000,500 500,500 500,1000 	"/>
	<line class="st1" x1="500" y1="500" x2="0" y2="0"/>
</g>
<g id="Слой_2">
	<circle class="st2" cx="500" cy="500" r="98.74"/>
	<g>
		<g>
			<path class="st2" d="M642.47,531.04l278.82,129.55c18.11,8.41,29.69,26.57,29.69,46.53v77.63c0,44.28-53.08,66.95-85.07,36.34
				l-251.38-240.6c-4.59-4.4-5.92-11.21-3.31-17.01l11.23-24.97C625.88,530.87,634.88,527.52,642.47,531.04z"/>
			<path class="st2" d="M904.48,604.9L800.3,555.94c-11.08-5.2-7.39-21.82,4.85-21.85l97.07-0.27c13.12-0.04,23.77,10.59,23.77,23.7
				v33.73C925.98,602.3,914.48,609.6,904.48,604.9z"/>
			<path class="st2" d="M529.1,640.53l129.55,278.82c8.41,18.11,26.57,29.69,46.53,29.69h77.63c44.28,0,66.95-53.08,36.34-85.07
				l-240.6-251.38c-4.4-4.59-11.21-5.92-17.01-3.31l-24.97,11.23C528.93,623.94,525.58,632.94,529.1,640.53z"/>
			<path class="st2" d="M602.96,902.54L554,798.36c-5.2-11.08-21.82-7.39-21.85,4.85l-0.27,97.07
				c-0.04,13.12,10.59,23.77,23.7,23.77h33.73C600.36,924.04,607.66,912.54,602.96,902.54z"/>
		</g>
		<g>
			<path class="st2" d="M468.96,642.47L339.41,921.29c-8.41,18.11-26.57,29.69-46.53,29.69h-77.63c-44.28,0-66.95-53.08-36.34-85.07
				l240.6-251.38c4.4-4.59,11.21-5.92,17.01-3.31l24.97,11.23C469.13,625.88,472.48,634.88,468.96,642.47z"/>
			<path class="st2" d="M395.1,904.48l48.96-104.18c5.2-11.08,21.82-7.39,21.85,4.85l0.27,97.07c0.04,13.12-10.59,23.77-23.7,23.77
				h-33.73C397.7,925.98,390.4,914.48,395.1,904.48z"/>
			<path class="st2" d="M359.47,529.1L80.65,658.65c-18.11,8.41-29.69,26.57-29.69,46.53v77.63c0,44.28,53.08,66.95,85.07,36.34
				l251.38-240.6c4.59-4.4,5.92-11.21,3.31-17.01l-11.23-24.97C376.06,528.93,367.06,525.58,359.47,529.1z"/>
			<path class="st2" d="M97.46,602.96L201.64,554c11.08-5.2,7.39-21.82-4.85-21.85l-97.07-0.27c-13.12-0.04-23.77,10.59-23.77,23.7
				v33.73C75.96,600.36,87.46,607.66,97.46,602.96z"/>
		</g>
		<g>
			<path class="st2" d="M357.53,468.96L78.71,339.41C60.6,331,49.02,312.85,49.02,292.88v-77.63c0-44.28,53.08-66.95,85.07-36.34
				l251.38,240.6c4.59,4.4,5.92,11.21,3.31,17.01l-11.23,24.97C374.12,469.13,365.12,472.48,357.53,468.96z"/>
			<path class="st2" d="M95.52,395.1l104.18,48.96c11.08,5.2,7.39,21.82-4.85,21.85l-97.07,0.27c-13.12,0.04-23.77-10.59-23.77-23.7
				v-33.73C74.02,397.7,85.52,390.4,95.52,395.1z"/>
			<path class="st2" d="M470.9,359.47L341.35,80.65c-8.41-18.11-26.57-29.69-46.53-29.69h-77.63c-44.28,0-66.95,53.08-36.34,85.07
				l240.6,251.38c4.4,4.59,11.21,5.92,17.01,3.31l24.97-11.23C471.07,376.06,474.42,367.06,470.9,359.47z"/>
			<path class="st2" d="M397.04,97.46L446,201.64c5.2,11.08,21.82,7.39,21.85-4.85l0.27-97.07c0.04-13.12-10.59-23.77-23.7-23.77
				h-33.73C399.64,75.96,392.34,87.46,397.04,97.46z"/>
		</g>
		<g>
			<path class="st2" d="M531.04,357.53L660.59,78.71c8.41-18.11,26.57-29.69,46.53-29.69h77.63c44.28,0,66.95,53.08,36.34,85.07
				l-240.6,251.38c-4.4,4.59-11.21,5.92-17.01,3.31l-24.97-11.23C530.87,374.12,527.52,365.12,531.04,357.53z"/>
			<path class="st2" d="M604.9,95.52L555.94,199.7c-5.2,11.08-21.82,7.39-21.85-4.85l-0.27-97.07
				c-0.04-13.12,10.59-23.77,23.7-23.77h33.73C602.3,74.02,609.6,85.52,604.9,95.52z"/>
			<path class="st2" d="M640.53,470.9l278.82-129.55c18.11-8.41,29.69-26.57,29.69-46.53v-77.63c0-44.28-53.08-66.95-85.07-36.34
				l-251.38,240.6c-4.59,4.4-5.92,11.21-3.31,17.01l11.23,24.97C623.94,471.07,632.94,474.42,640.53,470.9z"/>
			<path class="st2" d="M902.54,397.04L798.36,446c-11.08,5.2-7.39,21.82,4.85,21.85l97.07,0.27c13.12,0.04,23.77-10.59,23.77-23.7
				v-33.73C924.04,399.64,912.54,392.34,902.54,397.04z"/>
		</g>
	</g>
</g>
</svg>
