<?xml version="1.0" encoding="utf-8"?>
<!-- Generator: Adobe Illustrator 26.1.0, SVG Export Plug-In . SVG Version: 6.00 Build 0)  -->
<svg version="1.1" id="Слой_1" xmlns="http://www.w3.org/2000/svg" xmlns:xlink="http://www.w3.org/1999/xlink" x="0px" y="0px"
	 viewBox="0 0 1000 1000" style="enable-background:new 0 0 1000 1000;" xml:space="preserve">
<style type="text/css">
	.st0{fill:none;stroke:#000000;stroke-width:15;stroke-miterlimit:10;}
</style>
<path class="st0" d="M814.01,93.57c-4.75,9.5,2.66-5.33,6.91-14.33c3.2-6.79,8.31-12.57,14.82-16.29c6.05-3.46,12.92-5.61,19.9-7.32
	c9.04-2.21,23.72-0.98,23.72-0.98c12.36,2.64,25.71,9.6,33.52,20.88l0.75,1.08c10.28,14.85,9.6,34.69-1.69,48.79L802.08,262.74
	c-0.07,0.08-0.01,0.21,0.1,0.21c0,0,146.18-0.96,117.95-0.96"/>
<ellipse class="st0" cx="465.55" cy="533.23" rx="350.84" ry="434.65"/>
<line class="st0" x1="231.91" y1="857.41" x2="699.2" y2="209.06"/>
<line class="st0" x1="199.8" y1="818.2" x2="667.09" y2="169.85"/>
<line class="st0" x1="266.36" y1="899.74" x2="733.64" y2="251.38"/>
</svg>
