<?xml version="1.0" encoding="utf-8"?>
<!-- Generator: Adobe Illustrator 26.1.0, SVG Export Plug-In . SVG Version: 6.00 Build 0)  -->
<svg version="1.1" xmlns="http://www.w3.org/2000/svg" xmlns:xlink="http://www.w3.org/1999/xlink" x="0px" y="0px"
	 viewBox="0 0 1000 1000" style="enable-background:new 0 0 1000 1000;" xml:space="preserve">
<style type="text/css">
	.st0{display:none;}
	.st1{display:inline;fill:none;stroke:#000000;stroke-miterlimit:10;}
	.st2{fill:none;stroke:#000000;stroke-miterlimit:10;}
	.st3{fill:none;stroke:#000000;stroke-width:15;stroke-miterlimit:10;}
</style>
<g id="Слой_1" class="st0">
	<polygon class="st1" points="500,50 175,900 925,350 75,350 825,900 	"/>
</g>
<g id="Слой_2">
	<path class="st2" d="M500,50"/>
	<g>
		<path class="st3" d="M409.77,377.79h180.46c11.41,0,19.47-11.18,15.86-22.01L515.86,85.09c-5.08-15.24-26.64-15.24-31.72,0
			l-90.23,270.69C390.3,366.61,398.36,377.79,409.77,377.79z"/>
		<path class="st3" d="M620.76,399.8L677.83,571c3.61,10.83,16.76,14.93,25.89,8.09l228.27-171.2c12.85-9.64,6.04-30.09-10.03-30.09
			H636.62C625.21,377.79,617.15,388.97,620.76,399.8z"/>
		<path class="st3" d="M322.17,571l57.07-171.2c3.61-10.83-4.45-22.01-15.86-22.01H78.04c-16.07,0-22.88,20.45-10.03,30.09
			l228.27,171.2C305.41,585.93,318.56,581.82,322.17,571z"/>
		<path class="st3" d="M518.71,737.8L748.77,906.6c12.95,9.5,30.55-2.95,25.89-18.33L691.89,615.2
			c-3.31-10.92-16.35-15.39-25.66-8.8L518.94,710.68C509.63,717.27,509.51,731.05,518.71,737.8z"/>
		<path class="st3" d="M251.26,906.6L481.31,737.8c9.2-6.75,9.08-20.53-0.23-27.12L333.79,606.41c-9.31-6.59-22.35-2.12-25.66,8.8
			l-82.76,273.07C220.71,903.64,238.3,916.1,251.26,906.6z"/>
	</g>
	<path class="st3" d="M330.49,546.06l40.87-122.65c9.08-27.24,34.57-45.62,63.28-45.62h130.69c28.71,0,54.2,18.37,63.28,45.61
		l40.89,122.66c9.29,27.88-0.75,58.56-24.74,75.54l-106.22,75.2c-23.09,16.35-53.99,16.35-77.08,0l-106.23-75.2
		C331.25,604.61,321.2,573.94,330.49,546.06z"/>
</g>
</svg>
