<?xml version="1.0" encoding="utf-8"?>
<!-- Generator: Adobe Illustrator 26.1.0, SVG Export Plug-In . SVG Version: 6.00 Build 0)  -->
<svg version="1.1" id="Слой_1" xmlns="http://www.w3.org/2000/svg" xmlns:xlink="http://www.w3.org/1999/xlink" x="0px" y="0px"
	 viewBox="0 0 1000 1000" style="enable-background:new 0 0 1000 1000;" xml:space="preserve">
<style type="text/css">
	
		.st0{clip-path:url(#SVGID_00000080890321253540403850000014234767704176453018_);fill:none;stroke:#000000;stroke-width:15;stroke-miterlimit:10;}
	
		.st1{clip-path:url(#SVGID_00000129192467106449398650000016223344419188698801_);fill:none;stroke:#000000;stroke-width:15;stroke-miterlimit:10;}
</style>
<g>
	<g id="_x3C_Зеркальный_повтор_x3E__00000123435507155464311640000002362840613014842035_">
		<g>
			<defs>
				<rect id="SVGID_1_" x="492.52" y="70.67" width="480.87" height="858.66"/>
			</defs>
			<clipPath id="SVGID_00000150060885719789144610000004898327401761936002_">
				<use xlink:href="#SVGID_1_"  style="overflow:visible;"/>
			</clipPath>
			
				<path style="clip-path:url(#SVGID_00000150060885719789144610000004898327401761936002_);fill:none;stroke:#000000;stroke-width:15;stroke-miterlimit:10;" d="
				M501.94,364.46L616.35,78.44c0.04-0.1,0.18-0.1,0.22,0l116.32,290.81h-227.7C503.8,367.2,503.32,366.5,501.94,364.46z"/>
			
				<path style="clip-path:url(#SVGID_00000150060885719789144610000004898327401761936002_);fill:none;stroke:#000000;stroke-width:15;stroke-miterlimit:10;" d="
				M732.89,369.25L849.21,78.44c0.04-0.1,0.18-0.1,0.22,0l116.26,290.65c0.03,0.08-0.03,0.16-0.11,0.16H732.89z"/>
			
				<path style="clip-path:url(#SVGID_00000150060885719789144610000004898327401761936002_);fill:none;stroke:#000000;stroke-width:15;stroke-miterlimit:10;" d="
				M500.02,369.36v552.35c0,0.13,0.17,0.16,0.22,0.05l232.64-552.51H500.14C500.08,369.25,500.02,369.3,500.02,369.36z"/>
			
				<path style="clip-path:url(#SVGID_00000150060885719789144610000004898327401761936002_);fill:none;stroke:#000000;stroke-width:15;stroke-miterlimit:10;" d="
				M732.89,369.25L500.32,921.58c-0.05,0.12,0.11,0.22,0.2,0.12l465.26-551.92c0.26-0.3,0.04-0.77-0.36-0.77L732.89,369.25z"/>
			
				<path style="clip-path:url(#SVGID_00000150060885719789144610000004898327401761936002_);fill:none;stroke:#000000;stroke-width:15;stroke-miterlimit:10;" d="
				M500.02,78.17"/>
			
				<path style="clip-path:url(#SVGID_00000150060885719789144610000004898327401761936002_);fill:none;stroke:#000000;stroke-width:15;stroke-miterlimit:10;" d="
				M849.32,78.17"/>
			
				<path style="clip-path:url(#SVGID_00000150060885719789144610000004898327401761936002_);fill:none;stroke:#000000;stroke-width:15;stroke-miterlimit:10;" d="
				M616.46,78.17l116.43,291.08L848.77,79.53c0.26-0.65-0.22-1.36-0.92-1.36H616.46z"/>
			
				<line style="clip-path:url(#SVGID_00000150060885719789144610000004898327401761936002_);fill:none;stroke:#000000;stroke-width:15;stroke-miterlimit:10;" x1="616.46" y1="78.17" x2="500.02" y2="78.17"/>
		</g>
	</g>
	<g id="_x3C_Зеркальный_повтор_x3E__00000091704727377491892190000011538335915750123182_">
		<g>
			<defs>
				<rect id="SVGID_00000026852718435172661910000014241733869615306401_" x="26.61" y="70.67" width="480.87" height="858.66"/>
			</defs>
			<clipPath id="SVGID_00000139993728049858450150000014786160474892273586_">
				<use xlink:href="#SVGID_00000026852718435172661910000014241733869615306401_"  style="overflow:visible;"/>
			</clipPath>
			
				<path style="clip-path:url(#SVGID_00000139993728049858450150000014786160474892273586_);fill:none;stroke:#000000;stroke-width:15;stroke-miterlimit:10;" d="
				M498.06,364.46L383.65,78.44c-0.04-0.1-0.18-0.1-0.22,0L267.11,369.25h227.7C496.2,367.2,496.68,366.5,498.06,364.46z"/>
			
				<path style="clip-path:url(#SVGID_00000139993728049858450150000014786160474892273586_);fill:none;stroke:#000000;stroke-width:15;stroke-miterlimit:10;" d="
				M267.11,369.25L150.79,78.44c-0.04-0.1-0.18-0.1-0.22,0L34.32,369.09c-0.03,0.08,0.03,0.16,0.11,0.16H267.11z"/>
			
				<path style="clip-path:url(#SVGID_00000139993728049858450150000014786160474892273586_);fill:none;stroke:#000000;stroke-width:15;stroke-miterlimit:10;" d="
				M499.98,369.36v552.35c0,0.13-0.17,0.16-0.22,0.05L267.11,369.25h232.75C499.92,369.25,499.98,369.3,499.98,369.36z"/>
			
				<path style="clip-path:url(#SVGID_00000139993728049858450150000014786160474892273586_);fill:none;stroke:#000000;stroke-width:15;stroke-miterlimit:10;" d="
				M267.11,369.25l232.56,552.34c0.05,0.12-0.11,0.22-0.2,0.12L34.22,369.79c-0.26-0.3-0.04-0.77,0.36-0.77L267.11,369.25z"/>
			
				<path style="clip-path:url(#SVGID_00000139993728049858450150000014786160474892273586_);fill:none;stroke:#000000;stroke-width:15;stroke-miterlimit:10;" d="
				M499.98,78.17"/>
			
				<path style="clip-path:url(#SVGID_00000139993728049858450150000014786160474892273586_);fill:none;stroke:#000000;stroke-width:15;stroke-miterlimit:10;" d="
				M150.68,78.17"/>
			
				<path style="clip-path:url(#SVGID_00000139993728049858450150000014786160474892273586_);fill:none;stroke:#000000;stroke-width:15;stroke-miterlimit:10;" d="
				M383.54,78.17L267.11,369.25L151.23,79.53c-0.26-0.65,0.22-1.36,0.92-1.36H383.54z"/>
			
				<line style="clip-path:url(#SVGID_00000139993728049858450150000014786160474892273586_);fill:none;stroke:#000000;stroke-width:15;stroke-miterlimit:10;" x1="383.54" y1="78.17" x2="499.98" y2="78.17"/>
		</g>
	</g>
</g>
</svg>
