<?xml version="1.0" encoding="utf-8"?>
<!-- Generator: Adobe Illustrator 26.1.0, SVG Export Plug-In . SVG Version: 6.00 Build 0)  -->
<svg version="1.1" id="Слой_2" xmlns="http://www.w3.org/2000/svg" xmlns:xlink="http://www.w3.org/1999/xlink" x="0px" y="0px"
	 viewBox="0 0 1000 1000" style="enable-background:new 0 0 1000 1000;" xml:space="preserve">
<style type="text/css">
	.st0{fill:none;stroke:#000000;stroke-width:15;stroke-miterlimit:10;}
</style>
<path class="st0" d="M750,593.47v288.06c0,24.01-19.46,43.47-43.47,43.47H293.47c-24.01,0-43.47-19.46-43.47-43.47V593.47
	c0-24.01,19.46-43.47,43.47-43.47h413.06C730.54,550,750,569.46,750,593.47z"/>
<path class="st0" d="M898.11,431.21L526.28,98.52c-14.96-13.39-37.6-13.39-52.57,0L101.89,431.21C74.92,455.33,91.99,500,128.17,500
	h743.66C908.01,500,925.08,455.33,898.11,431.21z"/>
<path class="st0" d="M344.09,587.5h86.82c24.35,0,44.09,19.74,44.09,44.09v211.82c0,24.35-19.74,44.09-44.09,44.09h-86.82
	c-24.35,0-44.09-19.74-44.09-44.09V631.59C300,607.24,319.74,587.5,344.09,587.5z"/>
<path class="st0" d="M373.25,637.5h28.5c12.84,0,23.25,10.41,23.25,23.25v28.5c0,12.84-10.41,23.25-23.25,23.25h-28.5
	c-12.84,0-23.25-10.41-23.25-23.25v-28.5C350,647.91,360.41,637.5,373.25,637.5z"/>
<path class="st0" d="M373.25,765.62h28.5c12.84,0,23.25,10.41,23.25,23.25v28.5c0,12.84-10.41,23.25-23.25,23.25h-28.5
	c-12.84,0-23.25-10.41-23.25-23.25v-28.5C350,776.03,360.41,765.62,373.25,765.62z"/>
<path class="st0" d="M579.25,600h66.5c29.96,0,54.25,24.29,54.25,54.25v66.5c0,29.96-24.29,54.25-54.25,54.25h-66.5
	c-29.96,0-54.25-24.29-54.25-54.25v-66.5C525,624.29,549.29,600,579.25,600z"/>
<path class="st0" d="M732.67,400.4L515.25,205.87c-8.75-7.83-21.99-7.83-30.74,0L267.1,400.4c-15.77,14.11-5.79,40.23,15.37,40.23
	H717.3C738.45,440.62,748.43,414.51,732.67,400.4z"/>
</svg>
