<svg xmlns="http://www.w3.org/2000/svg" viewBox="0 0 1000 1000" style="fill:#fff" xml:space="preserve" preserveAspectRatio="none" id="spyral-logo"><path d="M568.16 557.62c-1.65 1.67-3.42 3.17-5.12 4.77-2.44 2.3 4.92-3.31.67-.49-.83.55-1.63 1.14-2.46 1.69a68.074 68.074 0 0 1-5.06 3.01c-.86.46-1.72.9-2.59 1.33-.87.42-1.75.83-2.63 1.22 1.02-.44 2.05-.88 3.07-1.31-4.12.84-8.12 2.79-12.29 3.71-1.84.4-3.73.62-5.57 1.03 7.57-1.7.24-.1-2 .05-3.92.26-7.85.29-11.77.12-2.04-.09-4.07-.22-6.1-.41-.89-.08-1.78-.19-2.67-.28-4.98-.47 6.01 1.01 1.15.15-3.75-.67-7.49-1.28-11.15-2.36-1.11-.33-2.2-.74-3.31-1.08-2.18-.68-1.49-1.78 1.94.88-1.66-1.29-4.06-1.99-5.89-3.11-.74-.45-1.45-.97-2.2-1.42-3.19-1.92 1.47 1.1 1.74 1.44-1.13-1.42-2.98-2.56-4.26-3.86-.59-.6-1.15-1.24-1.73-1.86-1.73-1.82-1.22-3.29.98 1.41-.86-1.83-2.4-3.53-3.38-5.33-.4-.74-.76-1.51-1.15-2.25-1.07-2.02.29-2.15.92 2.23-.26-1.8-1.29-3.73-1.74-5.5-.21-.84-.37-1.69-.57-2.53-.62-2.65.73-3.37.17 1.83.23-2.12-.32-4.57-.27-6.73.02-.97.1-1.93.15-2.9.1-2 1.22-3.08-.31 1.84.6-1.91.76-4.01 1.29-5.95.61-2.24 1.41-4.37 2.18-6.55 1.12-3.19-2.76 5.35-.25.75.63-1.15 1.17-2.34 1.8-3.49 1.95-3.58 4.38-8.65 7.43-11.41-3.7 3.34-1.76 2.21-.69 1.01.92-1.02 1.78-2.1 2.7-3.12 1.85-2.07 3.77-4.07 5.76-6.02 3.34-3.28 6.86-6.4 10.49-9.35.6-.49 1.7-1.61 2.47-1.97-4.7 2.19-2.08 1.61-.41.4 2.16-1.58 4.36-3.1 6.6-4.56 3.84-2.52 7.79-4.88 11.84-7.05 1.92-1.03 3.86-2.02 5.83-2.97 1.23-.6 2.47-1.17 3.72-1.73 3.48-1.57 1.07-1.31-.43.15 1.27-1.24 5.26-2.01 6.97-2.6 2.36-.81 4.74-1.56 7.14-2.25 4.86-1.39 9.77-2.33 14.72-3.31 5.52-1.09-3.94.4-.66.04.94-.1 1.87-.22 2.81-.32 2.13-.23 4.26-.42 6.39-.57 4.32-.32 8.66-.49 12.99-.52 8.83-.07 17.47.81 26.25 1.49-7.43-.58-1.1-.14.84.17 2.15.35 4.29.74 6.43 1.16 4.46.89 8.88 1.94 13.25 3.18a150.6 150.6 0 0 1 11.36 3.71c1.08.4 2.15.83 3.23 1.25 1.76.67 2.7 2.02-1.93-.83 1.89 1.16 4.16 1.89 6.14 2.89 3.36 1.69 6.64 3.55 9.81 5.58 1.64 1.06 3.23 2.19 4.83 3.3 1.49 1.04 2.23 2.64-1.79-1.42.88.89 1.99 1.62 2.94 2.45 2.68 2.34 5.22 4.85 7.56 7.53.55.62 1.05 1.29 1.61 1.9 2.08 2.3-3.62-5.16-1.11-1.41 1.23 1.83 2.47 3.64 3.62 5.53 2.05 3.35 3.96 6.79 5.73 10.3 1.02 2.01 2 4.05 2.94 6.1.38.84.87 2.93 1.54 3.48-1.24-1-1.93-4.72-.38-.77 3.43 8.73 6.18 17.72 8.25 26.86.99 4.37 1.75 8.77 2.5 13.19.73 4.37-.37-1.36-.2-1.69-.34.69.36 3.07.45 3.92.27 2.61.48 5.22.64 7.83.53 9.05.18 18-.64 27.02-.48 5.23.76-4.57.16-1.13-.17.99-.31 1.98-.48 2.97-.39 2.2-.83 4.4-1.33 6.57-.97 4.23-2.17 8.4-3.61 12.49-.66 1.86-1.41 3.68-2.1 5.52-1.15 3.04 2.63-5.76.55-1.36-.4.84-.77 1.69-1.16 2.52-1.84 3.91-3.85 7.74-5.99 11.5-2.24 3.93-4.63 7.79-7.14 11.55-1.14 1.71-2.31 3.41-3.51 5.09-1.08 1.52-6.42 7.78-1.87 2.66-6.33 7.11-12.13 14.47-19.05 21.06-3.19 3.04-6.5 5.97-9.91 8.76-3.65 2.97-.12-.78.64-.43-.1-.05-2.58 1.91-2.44 1.81-2.02 1.47-4.08 2.88-6.18 4.24-3.42 2.21-6.96 4.24-10.59 6.08-1.48.75-2.98 1.47-4.49 2.17-.68.31-1.37.61-2.05.92-3.71 1.71 5.63-2.25 1.55-.64-6.61 2.61-13.3 4.93-20.16 6.84-7.05 1.96-14.19 3.56-21.39 4.86-3.62.65-7.27 1.12-10.9 1.73 8.12-1.37 1.12-.17-.82.05-2.21.25-4.42.48-6.63.68-16.16 1.47-32.44 1.71-48.64.9-8.34-.42-16.68-1.12-24.97-2.1-1.15-.14-2.3-.29-3.45-.42-3.12-.38 5.36.76 2.25.31-2.05-.3-4.11-.59-6.16-.91-4.08-.64-8.14-1.35-12.19-2.13-15.63-3.02-31.08-7.1-46.05-12.54-3.35-1.22-6.66-2.55-9.97-3.87-2.95-1.17 5.89 2.59 1.75.73-.74-.34-1.5-.66-2.24-.99-1.84-.83-3.67-1.68-5.49-2.56-6.27-3.04-12.38-6.41-18.25-10.18-2.63-1.69-5.17-3.5-7.71-5.32-4.02-2.88 4.9 3.96.21.14a137.03 137.03 0 0 1-5.02-4.3c-5.77-5.18-11.11-10.82-16.04-16.81-.69-.84-1.32-1.85-2.1-2.6.23.22 3.59 4.8 1.29 1.67-1.06-1.45-2.14-2.89-3.17-4.35-2.48-3.51-4.83-7.1-7.07-10.77-4.29-7.05-8.15-14.36-11.61-21.85-.86-1.85-1.54-3.95-2.55-5.71.17.3 2.28 5.58.8 1.88-.35-.86-.7-1.72-1.05-2.59-1.56-3.9-3.02-7.84-4.38-11.81-2.75-7.97-5.13-16.07-7.18-24.24-2.04-8.14-3.75-16.36-5.14-24.64-.35-2.05-.67-4.1-.98-6.16-.14-.91-.26-1.82-.4-2.73-.5-3.34.8 6.5.22 1.61-.48-4.06-.95-8.12-1.32-12.19-1.38-15.43-1.73-30.98-.82-46.45.2-3.38.46-6.75.79-10.12.18-1.82.83-4.13.65-5.91.04.43-.92 6.03-.24 1.91.24-1.47.46-2.95.72-4.42 1.5-8.56 3.63-17.01 6.37-25.26 1.19-3.56 2.53-7.06 3.9-10.56 1.79-4.58-1.9 4.25-.52 1.24.39-.84.75-1.69 1.14-2.53.96-2.09 1.97-4.17 3.01-6.22 3.72-7.31 7.95-14.36 12.64-21.1 1.16-1.67 2.37-3.32 3.57-4.96.86-1.18 2.8-3.42-1.29 1.62.57-.7 1.12-1.42 1.68-2.13 2.69-3.35 5.48-6.61 8.38-9.78 5.35-5.85 11.03-11.39 16.99-16.61 3.08-2.7 6.24-5.29 9.44-7.84 1.15-.92 3.6-2.49-1.62 1.24.74-.53 1.46-1.1 2.19-1.64 1.83-1.36 3.68-2.7 5.55-4.01 6.74-4.74 13.71-9.15 20.86-13.26 7.16-4.12 14.5-7.93 21.97-11.45 3.73-1.76 7.58-3.28 11.3-5.06-.3.14-5.6 2.3-1.93.83.85-.34 1.69-.69 2.54-1.03 2.12-.85 4.25-1.68 6.38-2.49 14.75-5.58 29.82-10.08 45.26-13.31 8.16-1.71 16.37-3.06 24.61-4.29 1.51-.23 4.59-.43-2.12.27.95-.1 1.91-.25 2.86-.37 1.92-.24 3.85-.47 5.78-.69 4.65-.53 9.31-.99 13.97-1.38 18.32-1.56 36.71-2.19 55.1-2.07 18.4.12 36.8 1.01 55.13 2.65a628.864 628.864 0 0 1 19.72 2.08c1 .12 2 .24 2.99.37.99.13 1.99.25 2.98.38-1.14-.15-2.28-.31-3.41-.46 8.69 1.32 17.37 2.57 26.02 4.17 15.84 2.94 31.57 6.59 46.94 11.41 3.9 1.22 7.77 2.53 11.6 3.98 1.7.64 5.28 1.4 6.58 2.61-.26-.24-5.31-2.37-1.36-.54 1.45.67 2.91 1.31 4.36 1.99 8.84 4.15 17.41 8.85 25.72 13.99 8.28 5.12 16.18 10.73 23.99 16.51 2.89 2.13-4.57-3.66-.21-.16.87.7 1.75 1.39 2.63 2.09 1.74 1.4 3.48 2.82 5.19 4.26 4.07 3.41 8.07 6.91 11.98 10.5 14.27 13.08 27.33 27.32 39.39 42.45 3.31 4.16-2.47-3.31-.41-.53.61.83 1.24 1.65 1.86 2.48 1.37 1.84 2.72 3.7 4.05 5.57 2.59 3.65 5.09 7.35 7.51 11.12 5.73 8.94 10.95 18.22 15.4 27.87.48 1.05.94 2.11 1.42 3.15 2.37 5.16-1.39-3.64-.12-.28.87 2.31 1.8 4.59 2.63 6.91a177.782 177.782 0 0 1 7.26 26.75c.37 1.93.71 3.88 1.01 5.82.14.88.19 2.02.44 2.9-1.78-6.22-.35-2.7-.11-.58 2.07 17.8 2.01 35.78 1.97 53.67-.05 20.65-1.07 41.32-3.49 61.83-.2 1.67-.72 9.98-.37 3.16-.12 2.3-.66 4.64-1.02 6.92-.85 5.47-1.81 10.93-2.89 16.36-2.04 10.31-4.49 20.54-7.4 30.63-2.84 9.86-6.12 19.6-9.86 29.15-.54 1.37-1.09 2.74-1.64 4.1-.31.77-1.88 4.29-.5 1.22 1.61-3.58-.79 1.75-.91 2.01a305.396 305.396 0 0 1-8.57 17.65c-4.24 8.04-8.85 15.88-13.84 23.47a284.455 284.455 0 0 1-10.32 14.66c-.55.73-1.16 1.45-1.67 2.21 3.9-5.78 1.32-1.72.34-.48-10.51 13.21-22.14 25.53-34.58 36.94-6.35 5.82-12.92 11.4-19.67 16.75-.76.6-1.53 1.18-2.28 1.79 4.83-3.94 2.53-1.95 1.41-1.1-1.74 1.31-3.48 2.62-5.24 3.92-3.73 2.74-7.51 5.41-11.34 8.01-14.53 9.89-29.71 18.82-45.37 26.8-8.08 4.12-16.28 8-24.6 11.62-.93.41-1.86.8-2.79 1.21-3.16 1.38 5.66-2.32.82-.35-1.88.77-3.76 1.55-5.65 2.3-4.26 1.7-8.55 3.35-12.86 4.92a481.588 481.588 0 0 1-53.23 16.07 484.69 484.69 0 0 1-27.45 5.78c-4.61.84-9.24 1.61-13.88 2.31-2.06.31-4.14.56-6.2.9 7.48-1.24-1.05.12-2.94.34a482.274 482.274 0 0 1-56.34 3.41c-19.05.03-38.12-1.11-57.06-3.16-2.43-.26-4.85-.54-7.28-.84-1.08-.13-2.15-.27-3.23-.4-4.36-.54 1.08.27 1.54.22-2.08.25-5.15-.72-7.24-1.03a568.336 568.336 0 0 1-36.71-6.73 567.916 567.916 0 0 1-55.28-14.95 554.4 554.4 0 0 1-27.18-9.61c-4.47-1.71-8.91-3.47-13.33-5.3-.98-.4-1.95-.84-2.94-1.22.52.2 5.18 2.22 1.34.56-2.43-1.05-4.85-2.1-7.27-3.18-34.1-15.22-66.71-33.92-96.72-56.16-1.63-1.21-3.25-2.44-4.87-3.66-3.25-2.46.86.66 1.24.97-.78-.64-1.6-1.24-2.39-1.87-3.76-2.96-7.47-5.98-11.14-9.06a433.179 433.179 0 0 1-20.09-17.96c-12.62-12.01-24.5-24.8-35.44-38.35-1.51-1.87-2.92-3.9-4.51-5.7.38.42 3.59 4.75.98 1.24l-1.98-2.64c-2.94-3.96-5.81-7.97-8.6-12.04a392.435 392.435 0 0 1-15.7-24.81 402.69 402.69 0 0 1-13.72-25.69c-2.12-4.34-4.17-8.72-6.14-13.14-.87-1.96-1.65-3.97-2.57-5.9 3.01 6.29-.59-1.49-1.27-3.18-7.14-17.85-13.06-36.19-17.78-54.83-2.36-9.3-4.41-18.68-6.18-28.11-.78-4.19-1.51-8.39-2.18-12.6-.38-2.37-.73-4.74-1.08-7.11-.04-.26-.08-.53-.11-.79-.37-2.65-.3-2.11.21 1.63.33-.94-.39-3-.5-3.96-4.65-37.71-4.86-75.94-1-113.73.48-4.73 1.04-9.46 1.64-14.18.18-1.42.81-4.59-.23 1.67.17-1.04.29-2.09.44-3.13.38-2.61.77-5.22 1.19-7.82 1.49-9.34 3.23-18.64 5.22-27.89 3.85-17.9 8.8-35.55 14.9-52.82 1.44-4.08 2.95-8.14 4.51-12.17.83-2.14 1.68-4.27 2.54-6.39.38-.94.81-1.88 1.16-2.83-2.43 6.47-.57 1.35-.03.09 3.66-8.46 7.6-16.8 11.81-25a423.6 423.6 0 0 1 36-58.06c1.4-1.9 2.83-3.77 4.25-5.66 1.93-2.56-2.86 3.63-.86 1.11.98-1.24 1.95-2.48 2.94-3.72a432.73 432.73 0 0 1 18.07-21.16 438.305 438.305 0 0 1 42.13-40.43c3.81-3.2 7.69-6.3 11.57-9.4.99-.79 3.34-2.94-.91.69.84-.71 1.79-1.37 2.66-2.03 1.42-1.07 2.85-2.14 4.29-3.17 4.72-3.38 9.61-6.51 14.61-9.46 11.25-6.63 23.02-12.28 34.99-17.47 1.46-.63 4.14-1.59-2.51 1.06.73-.29 1.45-.6 2.17-.9 1.65-.68 3.3-1.34 4.96-2 3.57-1.42 7.16-2.79 10.76-4.11 6.88-2.53 13.81-4.91 20.78-7.17 15.15-4.89 30.5-9.18 45.96-12.98 15.95-3.93 32.03-7.35 48.19-10.32a847.05 847.05 0 0 1 25.01-4.22c4.18-.64 8.37-1.26 12.56-1.85.93-.13 1.86-.25 2.79-.39-6.82.99-3.71.49-2.19.3 2.32-.3 4.65-.6 6.98-.89 32.25-3.99 64.76-6.31 97.27-6.22 13.84.04 27.68.52 41.48 1.65 6.36.52 12.69 1.25 19.03 2.01-8.92-1.07-2.48-.33-.51-.03 1.57.23 3.13.48 4.69.74 3.03.5 6.06 1.06 9.07 1.65 12.28 2.43 26.5-3.49 29.52-16.76 2.71-11.91-3.59-26.92-16.76-29.52-63.38-12.55-129.92-8.77-193.56-.25-68.15 9.12-136.6 24.02-199.32 52.94-29.8 13.74-55.61 32.97-79.9 54.96-30.54 27.64-57.33 59.74-79.27 94.59-43.06 68.39-64.78 147.26-69.79 227.53-5.18 83.01 9.45 167.31 45.44 242.46 34.8 72.65 91.04 132.01 158.11 175.89 67.48 44.15 145.83 73.07 225.48 85.09 41.22 6.22 82.85 8.85 124.45 5.51 40.18-3.22 80.1-10.77 118.45-23.22 72.28-23.47 141.91-63.33 192.03-121.28 27.79-32.13 48.56-68.7 62.33-108.91 14.56-42.52 20.51-87.98 21.67-132.78 1.02-39.24 1.07-80.33-12.64-117.64-15.19-41.33-42.17-77.79-73.26-108.62-31.37-31.11-68.16-57.29-109.58-73.1-34.1-13.01-71.3-18.65-107.39-22.62-38.11-4.2-76.69-5.2-114.94-2.52-36.02 2.52-72.16 7.94-106.23 20.23-35.52 12.81-68.62 30.44-97.79 54.52-28.83 23.81-51.04 54.43-64.43 89.32-12.52 32.62-14.74 69.01-12.34 103.61 2.65 38.17 10.9 75.35 25.97 110.53 14.33 33.46 36.19 63.49 66.03 84.68 26.47 18.8 59.02 29.87 90.53 36.61 35.04 7.5 71.49 10.53 107.25 7.88 33.84-2.51 68.85-9.11 98.77-25.89 17.99-10.09 34.09-24.37 47.45-40.01 13.18-15.43 25.04-32.37 33.22-51.01 8.67-19.75 13.27-40.15 13.72-61.8.44-21.35-2.87-43.3-9.23-63.68-6.29-20.17-15.33-39.88-28.67-56.36-11.78-14.54-28.28-24.78-45.33-31.98-36.78-15.52-79.73-18.97-118.79-10.95-21.42 4.4-42.38 13.88-60.28 26.39-18.92 13.22-36.97 29.62-47.96 50.23-10.56 19.81-14.9 44-6.9 65.53 8.26 22.25 25.42 38.3 47.87 45.85 9.13 3.07 19.24 4.17 28.78 4.95 8.98.74 17.8.24 26.71-.96 21.85-2.94 42.12-12.14 57.76-27.91 8.85-8.92 9.58-25.15 0-33.94-9.53-8.77-24.48-9.53-33.93-.01z"/></svg>