<?xml version="1.0" encoding="utf-8"?>
<!-- Generator: Adobe Illustrator 26.1.0, SVG Export Plug-In . SVG Version: 6.00 Build 0)  -->
<svg version="1.1" id="Слой_1" xmlns="http://www.w3.org/2000/svg" xmlns:xlink="http://www.w3.org/1999/xlink" x="0px" y="0px"
	 viewBox="0 0 1000 1000" style="enable-background:new 0 0 1000 1000;" xml:space="preserve" preserveAspectRatio="none">
<style type="text/css">
	.st0{fill:#FFFFFF;stroke:#000000;stroke-miterlimit:10;}
	.st1{fill:#FFFFFF;}
</style>
<path class="st0" d="M500,500"/>
<g>
	<g>
		<path class="st1" d="M568.16,557.62c-1.65,1.67-3.42,3.17-5.12,4.77c-2.44,2.3,4.92-3.31,0.67-0.49
			c-0.83,0.55-1.63,1.14-2.46,1.69c-1.64,1.08-3.34,2.08-5.06,3.01c-0.86,0.46-1.72,0.9-2.59,1.33c-0.87,0.42-1.75,0.83-2.63,1.22
			c1.02-0.44,2.05-0.88,3.07-1.31c-4.12,0.84-8.12,2.79-12.29,3.71c-1.84,0.4-3.73,0.62-5.57,1.03c7.57-1.7,0.24-0.1-2,0.05
			c-3.92,0.26-7.85,0.29-11.77,0.12c-2.04-0.09-4.07-0.22-6.1-0.41c-0.89-0.08-1.78-0.19-2.67-0.28c-4.98-0.47,6.01,1.01,1.15,0.15
			c-3.75-0.67-7.49-1.28-11.15-2.36c-1.11-0.33-2.2-0.74-3.31-1.08c-2.18-0.68-1.49-1.78,1.94,0.88c-1.66-1.29-4.06-1.99-5.89-3.11
			c-0.74-0.45-1.45-0.97-2.2-1.42c-3.19-1.92,1.47,1.1,1.74,1.44c-1.13-1.42-2.98-2.56-4.26-3.86c-0.59-0.6-1.15-1.24-1.73-1.86
			c-1.73-1.82-1.22-3.29,0.98,1.41c-0.86-1.83-2.4-3.53-3.38-5.33c-0.4-0.74-0.76-1.51-1.15-2.25c-1.07-2.02,0.29-2.15,0.92,2.23
			c-0.26-1.8-1.29-3.73-1.74-5.5c-0.21-0.84-0.37-1.69-0.57-2.53c-0.62-2.65,0.73-3.37,0.17,1.83c0.23-2.12-0.32-4.57-0.27-6.73
			c0.02-0.97,0.1-1.93,0.15-2.9c0.1-2,1.22-3.08-0.31,1.84c0.6-1.91,0.76-4.01,1.29-5.95c0.61-2.24,1.41-4.37,2.18-6.55
			c1.12-3.19-2.76,5.35-0.25,0.75c0.63-1.15,1.17-2.34,1.8-3.49c1.95-3.58,4.38-8.65,7.43-11.41c-3.7,3.34-1.76,2.21-0.69,1.01
			c0.92-1.02,1.78-2.1,2.7-3.12c1.85-2.07,3.77-4.07,5.76-6.02c3.34-3.28,6.86-6.4,10.49-9.35c0.6-0.49,1.7-1.61,2.47-1.97
			c-4.7,2.19-2.08,1.61-0.41,0.4c2.16-1.58,4.36-3.1,6.6-4.56c3.84-2.52,7.79-4.88,11.84-7.05c1.92-1.03,3.86-2.02,5.83-2.97
			c1.23-0.6,2.47-1.17,3.72-1.73c3.48-1.57,1.07-1.31-0.43,0.15c1.27-1.24,5.26-2.01,6.97-2.6c2.36-0.81,4.74-1.56,7.14-2.25
			c4.86-1.39,9.77-2.33,14.72-3.31c5.52-1.09-3.94,0.4-0.66,0.04c0.94-0.1,1.87-0.22,2.81-0.32c2.13-0.23,4.26-0.42,6.39-0.57
			c4.32-0.32,8.66-0.49,12.99-0.52c8.83-0.07,17.47,0.81,26.25,1.49c-7.43-0.58-1.1-0.14,0.84,0.17c2.15,0.35,4.29,0.74,6.43,1.16
			c4.46,0.89,8.88,1.94,13.25,3.18c3.83,1.09,7.63,2.32,11.36,3.71c1.08,0.4,2.15,0.83,3.23,1.25c1.76,0.67,2.7,2.02-1.93-0.83
			c1.89,1.16,4.16,1.89,6.14,2.89c3.36,1.69,6.64,3.55,9.81,5.58c1.64,1.06,3.23,2.19,4.83,3.3c1.49,1.04,2.23,2.64-1.79-1.42
			c0.88,0.89,1.99,1.62,2.94,2.45c2.68,2.34,5.22,4.85,7.56,7.53c0.55,0.62,1.05,1.29,1.61,1.9c2.08,2.3-3.62-5.16-1.11-1.41
			c1.23,1.83,2.47,3.64,3.62,5.53c2.05,3.35,3.96,6.79,5.73,10.3c1.02,2.01,2,4.05,2.94,6.1c0.38,0.84,0.87,2.93,1.54,3.48
			c-1.24-1-1.93-4.72-0.38-0.77c3.43,8.73,6.18,17.72,8.25,26.86c0.99,4.37,1.75,8.77,2.5,13.19c0.73,4.37-0.37-1.36-0.2-1.69
			c-0.34,0.69,0.36,3.07,0.45,3.92c0.27,2.61,0.48,5.22,0.64,7.83c0.53,9.05,0.18,18-0.64,27.02c-0.48,5.23,0.76-4.57,0.16-1.13
			c-0.17,0.99-0.31,1.98-0.48,2.97c-0.39,2.2-0.83,4.4-1.33,6.57c-0.97,4.23-2.17,8.4-3.61,12.49c-0.66,1.86-1.41,3.68-2.1,5.52
			c-1.15,3.04,2.63-5.76,0.55-1.36c-0.4,0.84-0.77,1.69-1.16,2.52c-1.84,3.91-3.85,7.74-5.99,11.5c-2.24,3.93-4.63,7.79-7.14,11.55
			c-1.14,1.71-2.31,3.41-3.51,5.09c-1.08,1.52-6.42,7.78-1.87,2.66c-6.33,7.11-12.13,14.47-19.05,21.06
			c-3.19,3.04-6.5,5.97-9.91,8.76c-3.65,2.97-0.12-0.78,0.64-0.43c-0.1-0.05-2.58,1.91-2.44,1.81c-2.02,1.47-4.08,2.88-6.18,4.24
			c-3.42,2.21-6.96,4.24-10.59,6.08c-1.48,0.75-2.98,1.47-4.49,2.17c-0.68,0.31-1.37,0.61-2.05,0.92c-3.71,1.71,5.63-2.25,1.55-0.64
			c-6.61,2.61-13.3,4.93-20.16,6.84c-7.05,1.96-14.19,3.56-21.39,4.86c-3.62,0.65-7.27,1.12-10.9,1.73
			c8.12-1.37,1.12-0.17-0.82,0.05c-2.21,0.25-4.42,0.48-6.63,0.68c-16.16,1.47-32.44,1.71-48.64,0.9
			c-8.34-0.42-16.68-1.12-24.97-2.1c-1.15-0.14-2.3-0.29-3.45-0.42c-3.12-0.38,5.36,0.76,2.25,0.31c-2.05-0.3-4.11-0.59-6.16-0.91
			c-4.08-0.64-8.14-1.35-12.19-2.13c-15.63-3.02-31.08-7.1-46.05-12.54c-3.35-1.22-6.66-2.55-9.97-3.87
			c-2.95-1.17,5.89,2.59,1.75,0.73c-0.74-0.34-1.5-0.66-2.24-0.99c-1.84-0.83-3.67-1.68-5.49-2.56
			c-6.27-3.04-12.38-6.41-18.25-10.18c-2.63-1.69-5.17-3.5-7.71-5.32c-4.02-2.88,4.9,3.96,0.21,0.14c-1.71-1.39-3.38-2.83-5.02-4.3
			c-5.77-5.18-11.11-10.82-16.04-16.81c-0.69-0.84-1.32-1.85-2.1-2.6c0.23,0.22,3.59,4.8,1.29,1.67c-1.06-1.45-2.14-2.89-3.17-4.35
			c-2.48-3.51-4.83-7.1-7.07-10.77c-4.29-7.05-8.15-14.36-11.61-21.85c-0.86-1.85-1.54-3.95-2.55-5.71c0.17,0.3,2.28,5.58,0.8,1.88
			c-0.35-0.86-0.7-1.72-1.05-2.59c-1.56-3.9-3.02-7.84-4.38-11.81c-2.75-7.97-5.13-16.07-7.18-24.24
			c-2.04-8.14-3.75-16.36-5.14-24.64c-0.35-2.05-0.67-4.1-0.98-6.16c-0.14-0.91-0.26-1.82-0.4-2.73c-0.5-3.34,0.8,6.5,0.22,1.61
			c-0.48-4.06-0.95-8.12-1.32-12.19c-1.38-15.43-1.73-30.98-0.82-46.45c0.2-3.38,0.46-6.75,0.79-10.12
			c0.18-1.82,0.83-4.13,0.65-5.91c0.04,0.43-0.92,6.03-0.24,1.91c0.24-1.47,0.46-2.95,0.72-4.42c1.5-8.56,3.63-17.01,6.37-25.26
			c1.19-3.56,2.53-7.06,3.9-10.56c1.79-4.58-1.9,4.25-0.52,1.24c0.39-0.84,0.75-1.69,1.14-2.53c0.96-2.09,1.97-4.17,3.01-6.22
			c3.72-7.31,7.95-14.36,12.64-21.1c1.16-1.67,2.37-3.32,3.57-4.96c0.86-1.18,2.8-3.42-1.29,1.62c0.57-0.7,1.12-1.42,1.68-2.13
			c2.69-3.35,5.48-6.61,8.38-9.78c5.35-5.85,11.03-11.39,16.99-16.61c3.08-2.7,6.24-5.29,9.44-7.84c1.15-0.92,3.6-2.49-1.62,1.24
			c0.74-0.53,1.46-1.1,2.19-1.64c1.83-1.36,3.68-2.7,5.55-4.01c6.74-4.74,13.71-9.15,20.86-13.26c7.16-4.12,14.5-7.93,21.97-11.45
			c3.73-1.76,7.58-3.28,11.3-5.06c-0.3,0.14-5.6,2.3-1.93,0.83c0.85-0.34,1.69-0.69,2.54-1.03c2.12-0.85,4.25-1.68,6.38-2.49
			c14.75-5.58,29.82-10.08,45.26-13.31c8.16-1.71,16.37-3.06,24.61-4.29c1.51-0.23,4.59-0.43-2.12,0.27
			c0.95-0.1,1.91-0.25,2.86-0.37c1.92-0.24,3.85-0.47,5.78-0.69c4.65-0.53,9.31-0.99,13.97-1.38c18.32-1.56,36.71-2.19,55.1-2.07
			c18.4,0.12,36.8,1.01,55.13,2.65c4.57,0.41,9.14,0.87,13.7,1.38c2.01,0.22,4.02,0.46,6.02,0.7c1,0.12,2,0.24,2.99,0.37
			c0.99,0.13,1.99,0.25,2.98,0.38c-1.14-0.15-2.28-0.31-3.41-0.46c8.69,1.32,17.37,2.57,26.02,4.17
			c15.84,2.94,31.57,6.59,46.94,11.41c3.9,1.22,7.77,2.53,11.6,3.98c1.7,0.64,5.28,1.4,6.58,2.61c-0.26-0.24-5.31-2.37-1.36-0.54
			c1.45,0.67,2.91,1.31,4.36,1.99c8.84,4.15,17.41,8.85,25.72,13.99c8.28,5.12,16.18,10.73,23.99,16.51
			c2.89,2.13-4.57-3.66-0.21-0.16c0.87,0.7,1.75,1.39,2.63,2.09c1.74,1.4,3.48,2.82,5.19,4.26c4.07,3.41,8.07,6.91,11.98,10.5
			c14.27,13.08,27.33,27.32,39.39,42.45c3.31,4.16-2.47-3.31-0.41-0.53c0.61,0.83,1.24,1.65,1.86,2.48c1.37,1.84,2.72,3.7,4.05,5.57
			c2.59,3.65,5.09,7.35,7.51,11.12c5.73,8.94,10.95,18.22,15.4,27.87c0.48,1.05,0.94,2.11,1.42,3.15c2.37,5.16-1.39-3.64-0.12-0.28
			c0.87,2.31,1.8,4.59,2.63,6.91c1.59,4.45,3,8.96,4.23,13.52c1.18,4.37,2.19,8.78,3.03,13.23c0.37,1.93,0.71,3.88,1.01,5.82
			c0.14,0.88,0.19,2.02,0.44,2.9c-1.78-6.22-0.35-2.7-0.11-0.58c2.07,17.8,2.01,35.78,1.97,53.67c-0.05,20.65-1.07,41.32-3.49,61.83
			c-0.2,1.67-0.72,9.98-0.37,3.16c-0.12,2.3-0.66,4.64-1.02,6.92c-0.85,5.47-1.81,10.93-2.89,16.36
			c-2.04,10.31-4.49,20.54-7.4,30.63c-2.84,9.86-6.12,19.6-9.86,29.15c-0.54,1.37-1.09,2.74-1.64,4.1c-0.31,0.77-1.88,4.29-0.5,1.22
			c1.61-3.58-0.79,1.75-0.91,2.01c-0.48,1.08-0.97,2.16-1.47,3.24c-2.24,4.87-4.61,9.67-7.1,14.41
			c-4.24,8.04-8.85,15.88-13.84,23.47c-2.27,3.45-4.62,6.86-7.04,10.21c-1.08,1.5-2.17,2.98-3.28,4.45
			c-0.55,0.73-1.16,1.45-1.67,2.21c3.9-5.78,1.32-1.72,0.34-0.48c-10.51,13.21-22.14,25.53-34.58,36.94
			c-6.35,5.82-12.92,11.4-19.67,16.75c-0.76,0.6-1.53,1.18-2.28,1.79c4.83-3.94,2.53-1.95,1.41-1.1c-1.74,1.31-3.48,2.62-5.24,3.92
			c-3.73,2.74-7.51,5.41-11.34,8.01c-14.53,9.89-29.71,18.82-45.37,26.8c-8.08,4.12-16.28,8-24.6,11.62
			c-0.93,0.41-1.86,0.8-2.79,1.21c-3.16,1.38,5.66-2.32,0.82-0.35c-1.88,0.77-3.76,1.55-5.65,2.3c-4.26,1.7-8.55,3.35-12.86,4.92
			c-17.41,6.38-35.2,11.74-53.23,16.07c-9.09,2.19-18.25,4.12-27.45,5.78c-4.61,0.84-9.24,1.61-13.88,2.31
			c-2.06,0.31-4.14,0.56-6.2,0.9c7.48-1.24-1.05,0.12-2.94,0.34c-18.69,2.23-37.52,3.38-56.34,3.41
			c-19.05,0.03-38.12-1.11-57.06-3.16c-2.43-0.26-4.85-0.54-7.28-0.84c-1.08-0.13-2.15-0.27-3.23-0.4
			c-4.36-0.54,1.08,0.27,1.54,0.22c-2.08,0.25-5.15-0.72-7.24-1.03c-2.68-0.4-5.35-0.82-8.03-1.26c-9.61-1.58-19.17-3.4-28.68-5.47
			c-18.66-4.05-37.12-9.04-55.28-14.95c-9.14-2.97-18.21-6.17-27.18-9.61c-4.47-1.71-8.91-3.47-13.33-5.3
			c-0.98-0.4-1.95-0.84-2.94-1.22c0.52,0.2,5.18,2.22,1.34,0.56c-2.43-1.05-4.85-2.1-7.27-3.18c-34.1-15.22-66.71-33.92-96.72-56.16
			c-1.63-1.21-3.25-2.44-4.87-3.66c-3.25-2.46,0.86,0.66,1.24,0.97c-0.78-0.64-1.6-1.24-2.39-1.87c-3.76-2.96-7.47-5.98-11.14-9.06
			c-6.88-5.78-13.59-11.77-20.09-17.96c-12.62-12.01-24.5-24.8-35.44-38.35c-1.51-1.87-2.92-3.9-4.51-5.7
			c0.38,0.42,3.59,4.75,0.98,1.24c-0.66-0.88-1.32-1.76-1.98-2.64c-2.94-3.96-5.81-7.97-8.6-12.04
			c-5.54-8.07-10.78-16.35-15.7-24.81c-4.88-8.39-9.46-16.97-13.72-25.69c-2.12-4.34-4.17-8.72-6.14-13.14
			c-0.87-1.96-1.65-3.97-2.57-5.9c3.01,6.29-0.59-1.49-1.27-3.18c-7.14-17.85-13.06-36.19-17.78-54.83
			c-2.36-9.3-4.41-18.68-6.18-28.11c-0.78-4.19-1.51-8.39-2.18-12.6c-0.38-2.37-0.73-4.74-1.08-7.11c-0.04-0.26-0.08-0.53-0.11-0.79
			c-0.37-2.65-0.3-2.11,0.21,1.63c0.33-0.94-0.39-3-0.5-3.96c-4.65-37.71-4.86-75.94-1-113.73c0.48-4.73,1.04-9.46,1.64-14.18
			c0.18-1.42,0.81-4.59-0.23,1.67c0.17-1.04,0.29-2.09,0.44-3.13c0.38-2.61,0.77-5.22,1.19-7.82c1.49-9.34,3.23-18.64,5.22-27.89
			c3.85-17.9,8.8-35.55,14.9-52.82c1.44-4.08,2.95-8.14,4.51-12.17c0.83-2.14,1.68-4.27,2.54-6.39c0.38-0.94,0.81-1.88,1.16-2.83
			c-2.43,6.47-0.57,1.35-0.03,0.09c3.66-8.46,7.6-16.8,11.81-25c8.38-16.33,17.83-32.11,28.26-47.22c2.52-3.65,5.1-7.27,7.74-10.84
			c1.4-1.9,2.83-3.77,4.25-5.66c1.93-2.56-2.86,3.63-0.86,1.11c0.98-1.24,1.95-2.48,2.94-3.72c5.79-7.24,11.82-14.3,18.07-21.16
			c13.12-14.4,27.22-27.91,42.13-40.43c3.81-3.2,7.69-6.3,11.57-9.4c0.99-0.79,3.34-2.94-0.91,0.69c0.84-0.71,1.79-1.37,2.66-2.03
			c1.42-1.07,2.85-2.14,4.29-3.17c4.72-3.38,9.61-6.51,14.61-9.46c11.25-6.63,23.02-12.28,34.99-17.47
			c1.46-0.63,4.14-1.59-2.51,1.06c0.73-0.29,1.45-0.6,2.17-0.9c1.65-0.68,3.3-1.34,4.96-2c3.57-1.42,7.16-2.79,10.76-4.11
			c6.88-2.53,13.81-4.91,20.78-7.17c15.15-4.89,30.5-9.18,45.96-12.98c15.95-3.93,32.03-7.35,48.19-10.32
			c8.32-1.53,16.65-2.94,25.01-4.22c4.18-0.64,8.37-1.26,12.56-1.85c0.93-0.13,1.86-0.25,2.79-0.39c-6.82,0.99-3.71,0.49-2.19,0.3
			c2.32-0.3,4.65-0.6,6.98-0.89c32.25-3.99,64.76-6.31,97.27-6.22c13.84,0.04,27.68,0.52,41.48,1.65
			c6.36,0.52,12.69,1.25,19.03,2.01c-8.92-1.07-2.48-0.33-0.51-0.03c1.57,0.23,3.13,0.48,4.69,0.74c3.03,0.5,6.06,1.06,9.07,1.65
			c12.28,2.43,26.5-3.49,29.52-16.76c2.71-11.91-3.59-26.92-16.76-29.52c-63.38-12.55-129.92-8.77-193.56-0.25
			c-68.15,9.12-136.6,24.02-199.32,52.94c-29.8,13.74-55.61,32.97-79.9,54.96c-30.54,27.64-57.33,59.74-79.27,94.59
			c-43.06,68.39-64.78,147.26-69.79,227.53c-5.18,83.01,9.45,167.31,45.44,242.46c34.8,72.65,91.04,132.01,158.11,175.89
			c67.48,44.15,145.83,73.07,225.48,85.09c41.22,6.22,82.85,8.85,124.45,5.51c40.18-3.22,80.1-10.77,118.45-23.22
			c72.28-23.47,141.91-63.33,192.03-121.28c27.79-32.13,48.56-68.7,62.33-108.91c14.56-42.52,20.51-87.98,21.67-132.78
			c1.02-39.24,1.07-80.33-12.64-117.64c-15.19-41.33-42.17-77.79-73.26-108.62c-31.37-31.11-68.16-57.29-109.58-73.1
			c-34.1-13.01-71.3-18.65-107.39-22.62c-38.11-4.2-76.69-5.2-114.94-2.52c-36.02,2.52-72.16,7.94-106.23,20.23
			c-35.52,12.81-68.62,30.44-97.79,54.52c-28.83,23.81-51.04,54.43-64.43,89.32c-12.52,32.62-14.74,69.01-12.34,103.61
			c2.65,38.17,10.9,75.35,25.97,110.53c14.33,33.46,36.19,63.49,66.03,84.68c26.47,18.8,59.02,29.87,90.53,36.61
			c35.04,7.5,71.49,10.53,107.25,7.88c33.84-2.51,68.85-9.11,98.77-25.89c17.99-10.09,34.09-24.37,47.45-40.01
			c13.18-15.43,25.04-32.37,33.22-51.01c8.67-19.75,13.27-40.15,13.72-61.8c0.44-21.35-2.87-43.3-9.23-63.68
			c-6.29-20.17-15.33-39.88-28.67-56.36c-11.78-14.54-28.28-24.78-45.33-31.98c-36.78-15.52-79.73-18.97-118.79-10.95
			c-21.42,4.4-42.38,13.88-60.28,26.39c-18.92,13.22-36.97,29.62-47.96,50.23c-10.56,19.81-14.9,44-6.9,65.53
			c8.26,22.25,25.42,38.3,47.87,45.85c9.13,3.07,19.24,4.17,28.78,4.95c8.98,0.74,17.8,0.24,26.71-0.96
			c21.85-2.94,42.12-12.14,57.76-27.91c8.85-8.92,9.58-25.15,0-33.94C592.56,548.86,577.61,548.1,568.16,557.62L568.16,557.62z"/>
	</g>
</g>
</svg>
